# AST/ASF file generated using VICON BodyLanguage
# -----------------------------------------------
:version 1.10
:name VICON
:units
  mass 1.0
  length 0.45
  angle deg
:documentation
   .ast/.asf automatically generated from VICON data using
   VICON BodyBuilder and BodyLanguage model FoxedUp or BRILLIANT.MOD
:root
   order TX TY TZ RX RY RZ
   axis XYZ
   position 0 0 0  
   orientation 0 0 0 
:bonedata
  begin
     id 1 
     name lhipjoint
     direction 0.535335 -0.74333 0.401095 
     length 2.04549 
     axis 0 0 0  XYZ
  end
  begin
     id 2 
     name lfemur
     direction 0.34202 -0.939693 0  
     length 6.95643  
     axis 0 0 20  XYZ
    dof rx ry rz
    limits (-160.0 20.0)
           (-70.0 70.0)
           (-60.0 70.0)
  end
  begin
     id 3 
     name ltibia
     direction 0.34192 -0.939729 0   
     length 5.55969   
     axis 0 0 20   XYZ
    dof rx
    limits (-10.0 170.0)
  end
  begin
     id 4 
     name lfoot
     direction 0.216943 -0.596046 0.773088   
     length 2.27918   
     axis -90 7.62852e-016 20   XYZ
    dof rx rz
    limits (-45.0 90.0)
           (-70.0 20.0)
  end
  begin
     id 5 
     name ltoes
     direction 1.53519e-011 -4.21748e-011 1   
     length 1.05562   
     axis -90 7.62852e-016 20   XYZ
    dof rx
    limits (-90.0 20.0)
  end
  begin
     id 6 
     name rhipjoint
     direction -0.576368 -0.719173 0.38806   
     length 2.1142  
     axis 0 0 0  XYZ 
  end
  begin
     id 7 
     name rfemur
     direction -0.34202 -0.939693 0   
     length 7.07928   
     axis 0 0 -20   XYZ
    dof rx ry rz
    limits (-160.0 20.0)
           (-70.0 70.0)
           (-70.0 60.0)
  end
  begin
     id 8 
     name rtibia
     direction -0.34202 -0.939693 0   
     length 5.79974   
     axis 0 0 -20   XYZ
    dof rx
    limits (-10.0 170.0)
 end
 begin
     id 9 
     name rfoot
     direction -0.189288 -0.520065 0.832888   
     length 2.42173  
     axis -90 -7.62852e-016 -20   XYZ
    dof rx rz
    limits (-45.0 90.0)
           (-20.0 70.0)
  end
  begin
     id 10 
     name rtoes
     direction -1.53574e-011 -4.21658e-011 1   
     length 1.14469   
     axis -90 -7.62852e-016 -20   XYZ
    dof rx
    limits (-90.0 20.0)
  end
  begin
     id 11 
     name lowerback
     direction -0.00135702 0.993803 0.111144   
     length 1.91308   
     axis 0 0 0   XYZ
    dof rx ry rz
    limits (-20.0 45.0)
           (-30.0 30.0)
           (-30.0 30.0)
  end
  begin
     id 12 
     name upperback
     direction -0.0056745 0.999813 0.0184631   
     length 1.9212   
     axis 0 0 0   XYZ
    dof rx ry rz
    limits (-20.0 45.0)
           (-30.0 30.0)
           (-30.0 30.0)
  end
  begin
     id 13 
     name thorax
     direction -0.00733434 0.999426 -0.0330788   
     length 1.94196   
     axis 0 0 0   XYZ
    dof rx ry rz
    limits (-20.0 45.0)
           (-30.0 30.0)
           (-30.0 30.0)
  end
  begin
     id 14 
     name lowerneck
     direction 0.0563074 0.996944 -0.0541571   
     length 2.34257   
     axis 0 0 0   XYZ
    dof rx ry rz
    limits (-20.0 45.0)
           (-30.0 30.0)
           (-30.0 30.0)
  end
  begin
     id 15 
     name upperneck
     direction -0.0544519 0.976166 -0.210085   
     length 2.32506   
     axis 0 0 0   XYZ
    dof rx ry rz
    limits (-20.0 45.0)
           (-30.0 30.0)
           (-30.0 30.0)
  end
  begin
     id 16
     name head
     direction -0.0226035 0.997615 -0.0652205  
     length 2.3648  
     axis 0 0 0   XYZ
    dof rx ry rz
    limits (-20.0 45.0)
           (-30.0 30.0)
           (-30.0 30.0)
  end
  begin
     id 17 
     name lclavicle
     direction 0.92109 0.381297 -0.0787716  
     length 4.0487  
     axis 0 0 0   XYZ
    dof ry rz
    limits (-20.0 10.0)
           (0.0 20.0)
  end
  begin
     id 18 
     name lhumerus
     direction 1 -4.48986e-011 3.56724e-027   
     length 4.94991   
     axis 180 -30 -90   XYZ
    dof rx ry rz
    limits (-60.0 90.0)
           (-90.0 90.0)
           (-90.0 90.0)
  end
  begin
     id 19
     name lradius
     direction 1 -4.48981e-011 8.62147e-027   
     length 2.7606   
     axis 180 -30 -90   XYZ
    dof rx
    limits (-10.0 170.0)
  end
  begin
     id 20
     name lwrist
     direction 1 -4.48989e-011 1.59799e-026   
     length 1.3803   
     axis -1.17785e-014 90 90   XYZ
    dof ry
    limits (-180.0 0.0)
 end
  begin
     id 21 
     name lhand
     direction 1 -4.48896e-011 3.19599e-026   
     length 0.843936   
     axis -2.03931e-014 90 90   XYZ
    dof rx rz
    limits (-90.0 90.0)
           (-45.0 45.0)
  end
  begin
     id 22 
     name lfingers
     direction 1 -4.48887e-011 6.39197e-026   
     length 0.680403   
     axis -4.07862e-014 90 90   XYZ
    dof rx
    limits (0.0 90.0)
  end
  begin
     id 23
     name lthumb
     direction 0.707107 -6.348e-011 0.707107   
     length 0.976926   
     axis -90 45 2.85299e-015   XYZ
    dof rx rz
    limits (-45.0 45.0)
           (-45.0 45.0)
  end
  begin
     id 24 
     name rclavicle
     direction -0.951104 0.307692 -0.026953   
     length 4.21801  
     axis 0 0 0   XYZ 
    dof ry rz
    limits (-10.0 20.0)
           (-20.0 0.0)
  end
  begin
     id 25 
     name rhumerus
     direction -1 -4.4896e-011 -1.8171e-018  
     length 4.32982   
     axis 180 30 90   XYZ
    dof rx ry rz
    limits (-90.0 60.0)
           (-90.0 90.0)
           (-90.0 90.0)
  end
  begin
     id 26 
     name rradius
     direction -1 -4.48959e-011 8.25165e-027   
     length 3.20057   
     axis 180 30 90   XYZ
    dof rx
    limits (-10.0 170.0)
  end
  begin
     id 27 
     name rwrist
     direction -1 -4.48997e-011 1.59799e-026   
     length 1.60029   
     axis -1.17785e-014 -90 -90   XYZ
    dof ry
    limits (-180.0 0.0)
  end
  begin
     id 28
     name rhand
     direction -1 -4.49023e-011 3.19599e-026   
     length 0.960433   
     axis -2.03931e-014 -90 -90   XYZ
    dof rx rz
    limits (-90.0 90.0)
           (-45.0 45.0)
  end
  begin
     id 29
     name rfingers
     direction -1 -4.48802e-011 6.39197e-026   
     length 0.774326   
     axis -4.07862e-014 -90 -90   XYZ
    dof rx
    limits (0.0 90.0)
  end
  begin
     id 30
     name rthumb
     direction -0.707107 -6.34876e-011 0.707107   
     length 1.11178   
     axis -90 -45 -2.85299e-015   XYZ
    dof rx rz
    limits (-45.0 45.0)
           (-45.0 45.0)
  end
:hierarchy
  begin
    root lhipjoint rhipjoint lowerback
    lhipjoint lfemur
    lfemur ltibia
    ltibia lfoot
    lfoot ltoes
    rhipjoint rfemur
    rfemur rtibia
    rtibia rfoot
    rfoot rtoes
    lowerback upperback
    upperback thorax
    thorax lowerneck lclavicle rclavicle
    lowerneck upperneck
    upperneck head
    lclavicle lhumerus
    lhumerus lradius
    lradius lwrist
    lwrist lhand lthumb
    lhand lfingers
    rclavicle rhumerus
    rhumerus rradius
    rradius rwrist
    rwrist rhand rthumb
    rhand rfingers
end

#!OML:ASF C:\KaitlinTest1\Natural Motions\Nikki\Session 2\Nikki.ASF
:FULLY-SPECIFIED
:DEGREES
705
root -18.839 16.6281 5.06173 -154.11 85.7927 -164.194
lowerback -13.3876 -1.62748 -0.113955
upperback -4.00806 -1.93044 -0.611268
thorax 3.2678 -0.881063 -0.875849
lowerneck -1.73619 1.58892 8.52299
upperneck 27.1289 3.84738 -5.64825
head 9.00124 2.53757 -3.03556
rclavicle 1.9307e-014 1.11319e-014
rhumerus -42.6556 -21.8595 -79.607
rradius 18.541
rwrist 28.9161
rhand -35.9084 2.98005
rfingers 7.12502
rthumb -9.02144 -26.807
lclavicle 1.9307e-014 1.11319e-014
lhumerus -42.46 16.2584 80.2482
lradius 24.0028
lwrist -39.9408
lhand -32.9152 3.61413
lfingers 7.12502
lthumb -6.1323 33.5054
rfemur -7.6984 -16.8101 21.0846
rtibia 11.0839
rfoot -10.8254 12.0124
rtoes -3.26007e-014
lfemur -9.9494 12.036 -17.8477
ltibia 9.7674
lfoot -2.29217 -16.7134
ltoes -1.59028e-015
706
root -18.8389 16.629 5.06104 -153.565 85.8034 -163.699
lowerback -13.4328 -1.62635 -0.0810011
upperback -4.01828 -1.9329 -0.594748
thorax 3.281 -0.881781 -0.878686
lowerneck -1.74941 1.60116 8.53117
upperneck 27.1329 3.86626 -5.66344
head 9.00701 2.54543 -3.04061
rclavicle 1.62258e-014 1.23246e-014
rhumerus -42.6401 -21.8756 -79.5953
rradius 18.5277
rwrist 28.887
rhand -35.8731 2.95618
rfingers 7.12502
rthumb -8.98739 -26.8324
lclavicle 1.62258e-014 1.23246e-014
lhumerus -42.4588 16.2968 80.2342
lradius 23.9969
lwrist -39.9811
lhand -32.8948 3.61767
lfingers 7.12502
lthumb -6.11266 33.5095
rfemur -7.7829 -16.8555 21.1256
rtibia 11.1059
rfoot -10.7849 12.0939
rtoes 2.3059e-014
lfemur -9.99357 12.0626 -17.8358
ltibia 9.74054
lfoot -2.2624 -16.7183
ltoes -1.43125e-014
707
root -18.8396 16.6293 5.06096 -153.854 85.8103 -163.993
lowerback -13.4225 -1.63044 -0.101886
upperback -4.0103 -1.93587 -0.599064
thorax 3.28428 -0.883472 -0.871753
lowerneck -1.78122 1.61026 8.53377
upperneck 27.1442 3.87926 -5.67599
head 9.0182 2.54995 -3.04417
rclavicle 3.8763e-015 3.57812e-015
rhumerus -42.593 -21.8674 -79.6395
rradius 18.5343
rwrist 28.8521
rhand -35.8933 2.85965
rfingers 7.12502
rthumb -9.00687 -26.9281
lclavicle 3.8763e-015 3.57812e-015
lhumerus -42.4448 16.2777 80.2556
lradius 23.9973
lwrist -39.9636
lhand -32.8775 3.66112
lfingers 7.12502
lthumb -6.09598 33.5534
rfemur -7.79502 -16.7908 21.0925
rtibia 11.1275
rfoot -10.7749 12.0406
rtoes -8.74653e-014
lfemur -9.98584 12.0592 -17.86
ltibia 9.71257
lfoot -2.23822 -16.7312
ltoes -3.33958e-014
708
root -18.8403 16.6294 5.06171 -154.197 85.8015 -164.314
lowerback -13.3874 -1.62754 -0.127373
upperback -3.9973 -1.92939 -0.608731
thorax 3.2795 -0.880734 -0.865684
lowerneck -1.79009 1.59939 8.50167
upperneck 27.1252 3.85139 -5.62719
head 9.00956 2.53717 -3.0237
rclavicle 1.2424e-016 1.98785e-015
rhumerus -42.602 -21.9325 -79.6089
rradius 18.5448
rwrist 28.9089
rhand -35.9043 2.87752
rfingers 7.12502
rthumb -9.01744 -26.9097
lclavicle 1.2424e-016 1.98785e-015
lhumerus -42.4181 16.2813 80.2504
lradius 23.9904
lwrist -39.9442
lhand -32.8849 3.56493
lfingers 7.12502
lthumb -6.10308 33.457
rfemur -7.76881 -16.8345 21.0744
rtibia 11.1285
rfoot -10.807 12.0572
rtoes -2.46493e-014
lfemur -9.97071 12.0399 -17.8741
ltibia 9.71463
lfoot -2.26176 -16.6976
ltoes -1.11319e-014
